<svg width="46" height="46" viewBox="0 0 46 46" fill="none" xmlns="http://www.w3.org/2000/svg">
<rect width="46" height="46" rx="12" fill="#F00044"/>
<path d="M30.4219 14.5625H28.625V13.625C28.625 13.2798 28.3452 13 28 13C27.6548 13 27.375 13.2798 27.375 13.625V14.5625H18.625V13.625C18.625 13.2798 18.3452 13 18 13C17.6548 13 17.375 13.2798 17.375 13.625V14.5625H15.5781C14.1565 14.5625 13 15.719 13 17.1406V30.4219C13 31.8435 14.1565 33 15.5781 33H30.4219C31.8435 33 33 31.8435 33 30.4219V17.1406C33 15.719 31.8435 14.5625 30.4219 14.5625ZM15.5781 15.8125H17.375V16.4375C17.375 16.7827 17.6548 17.0625 18 17.0625C18.3452 17.0625 18.625 16.7827 18.625 16.4375V15.8125H27.375V16.4375C27.375 16.7827 27.6548 17.0625 28 17.0625C28.3452 17.0625 28.625 16.7827 28.625 16.4375V15.8125H30.4219C31.1542 15.8125 31.75 16.4083 31.75 17.1406V18.625H14.25V17.1406C14.25 16.4083 14.8458 15.8125 15.5781 15.8125ZM30.4219 31.75H15.5781C14.8458 31.75 14.25 31.1542 14.25 30.4219V19.875H31.75V30.4219C31.75 31.1542 31.1542 31.75 30.4219 31.75Z" fill="white"/>
</svg>
