<svg width="10" height="20" viewBox="0 0 10 20" fill="none" xmlns="http://www.w3.org/2000/svg">
<path d="M8.84599 17.2605L8.58726 18.3182C7.81106 18.6246 7.19103 18.8578 6.72933 19.0181C6.26713 19.1789 5.73008 19.2589 5.11818 19.2589C4.17851 19.2589 3.44761 19.0287 2.92633 18.5715C2.40505 18.1124 2.14432 17.5307 2.14432 16.8251C2.14432 16.5519 2.16324 16.2709 2.20257 15.9846C2.24224 15.698 2.3053 15.3752 2.3916 15.0144L3.36165 11.581C3.44795 11.2523 3.5213 10.9408 3.58005 10.6462C3.63963 10.3534 3.66834 10.0841 3.66834 9.84159C3.66834 9.40312 3.57756 9.09643 3.39683 8.924C3.2161 8.75206 2.87123 8.66476 2.35924 8.66476C2.10847 8.66476 1.85074 8.70493 1.58802 8.7826C1.32414 8.8606 1.0986 8.93594 0.909241 9.00598L1.16864 7.94748C1.8041 7.68875 2.41152 7.46719 2.99255 7.2833C3.57358 7.09892 4.12258 7.00665 4.64187 7.00665C5.57507 7.00665 6.29517 7.23219 6.80086 7.68327C7.30654 8.13468 7.5593 8.71986 7.5593 9.44096C7.5593 9.59016 7.5427 9.85304 7.50702 10.2288C7.47217 10.6053 7.40728 10.9504 7.31268 11.2642L6.34679 14.6838C6.26762 14.9585 6.19643 15.2725 6.13452 15.6258C6.07063 15.9768 6.04009 16.245 6.04009 16.4249C6.04009 16.879 6.14133 17.189 6.3443 17.3538C6.54876 17.5186 6.90093 17.6006 7.40114 17.6006C7.63597 17.6006 7.90317 17.5589 8.20007 17.4771C8.49615 17.3953 8.71206 17.3234 8.84599 17.2605ZM9.09095 2.90393C9.09095 3.49973 8.86641 4.00856 8.41516 4.42695C7.96507 4.84683 7.42271 5.05694 6.78824 5.05694C6.15178 5.05694 5.60809 4.84683 5.15286 4.42695C4.69846 4.0084 4.47076 3.49973 4.47076 2.90393C4.47076 2.30929 4.69846 1.79962 5.15286 1.37592C5.60726 0.952889 6.15195 0.741455 6.78824 0.741455C7.42255 0.741455 7.96507 0.953387 8.41516 1.37592C8.86674 1.79962 9.09095 2.30945 9.09095 2.90393Z" fill="#F00044"/>
</svg>
