<svg width="25" height="25" viewBox="0 0 25 25" fill="none" xmlns="http://www.w3.org/2000/svg">
<g clip-path="url(#clip0)">
<path d="M24.9754 7.35007C24.9168 6.02172 24.702 5.1085 24.3943 4.31717C24.0769 3.4772 23.5885 2.72518 22.9487 2.10002C22.3235 1.46513 21.5665 0.971793 20.7363 0.659308C19.9404 0.351593 19.0319 0.136784 17.7036 0.0782166C16.3653 0.0146894 15.9405 0 12.5462 0C9.15203 0 8.72719 0.0146894 7.39388 0.0732565C6.06554 0.131824 5.15231 0.346824 4.36118 0.654348C3.52102 0.971793 2.769 1.46017 2.14384 2.10002C1.50895 2.72518 1.01581 3.48216 0.703131 4.3124C0.395416 5.1085 0.180607 6.01676 0.12204 7.34511C0.0585127 8.68338 0.0438232 9.10822 0.0438232 12.5024C0.0438232 15.8967 0.0585127 16.3215 0.11708 17.6548C0.175647 18.9832 0.390646 19.8964 0.698361 20.6877C1.01581 21.5277 1.50895 22.2797 2.14384 22.9049C2.769 23.5398 3.52598 24.0331 4.35622 24.3456C5.15231 24.6533 6.06058 24.8681 7.38911 24.9267C8.72223 24.9854 9.14726 24.9999 12.5415 24.9999C15.9357 24.9999 16.3605 24.9854 17.6938 24.9267C19.0222 24.8681 19.9354 24.6533 20.7265 24.3456C22.4067 23.696 23.735 22.3677 24.3846 20.6877C24.6921 19.8916 24.9071 18.9832 24.9657 17.6548C25.0243 16.3215 25.0389 15.8967 25.0389 12.5024C25.0389 9.10822 25.034 8.68338 24.9754 7.35007ZM22.7241 17.5571C22.6703 18.7781 22.4652 19.4374 22.2943 19.8769C21.8742 20.966 21.0098 21.8304 19.9207 22.2505C19.4812 22.4214 18.8171 22.6265 17.6009 22.6801C16.2823 22.7389 15.8869 22.7534 12.5512 22.7534C9.21556 22.7534 8.81513 22.7389 7.50129 22.6801C6.28035 22.6265 5.62104 22.4214 5.1815 22.2505C4.63952 22.0502 4.14618 21.7328 3.74575 21.3176C3.33063 20.9123 3.01319 20.4239 2.81288 19.8819C2.64194 19.4424 2.43687 18.7781 2.38326 17.5621C2.3245 16.2435 2.31 15.8478 2.31 12.5122C2.31 9.17652 2.3245 8.77609 2.38326 7.46243C2.43687 6.24149 2.64194 5.58218 2.81288 5.14264C3.01319 4.60047 3.33063 4.10732 3.75071 3.7067C4.15591 3.29158 4.64429 2.97414 5.18646 2.77402C5.626 2.60309 6.29027 2.39801 7.50625 2.34421C8.82486 2.28564 9.22052 2.27095 12.556 2.27095C15.8966 2.27095 16.2921 2.28564 17.6059 2.34421C18.8268 2.39801 19.4861 2.60309 19.9257 2.77402C20.4677 2.97414 20.961 3.29158 21.3614 3.7067C21.7766 4.11209 22.094 4.60047 22.2943 5.14264C22.4652 5.58218 22.6703 6.24626 22.7241 7.46243C22.7827 8.78105 22.7974 9.17652 22.7974 12.5122C22.7974 15.8478 22.7827 16.2385 22.7241 17.5571Z" fill="#F00044"/>
<path d="M12.5464 6.08032C9.00092 6.08032 6.12427 8.95678 6.12427 12.5025C6.12427 16.0482 9.00092 18.9246 12.5464 18.9246C16.0921 18.9246 18.9686 16.0482 18.9686 12.5025C18.9686 8.95678 16.0921 6.08032 12.5464 6.08032ZM12.5464 16.6684C10.2463 16.6684 8.38053 14.8028 8.38053 12.5025C8.38053 10.2021 10.2463 8.33658 12.5464 8.33658C14.8468 8.33658 16.7123 10.2021 16.7123 12.5025C16.7123 14.8028 14.8468 16.6684 12.5464 16.6684Z" fill="#F00044"/>
<path d="M20.7218 5.82631C20.7218 6.65426 20.0505 7.32559 19.2224 7.32559C18.3944 7.32559 17.7231 6.65426 17.7231 5.82631C17.7231 4.99816 18.3944 4.32703 19.2224 4.32703C20.0505 4.32703 20.7218 4.99816 20.7218 5.82631Z" fill="#F00044"/>
</g>
<defs>
<clipPath id="clip0">
<rect width="25" height="25" fill="white"/>
</clipPath>
</defs>
</svg>
