<svg width="118" height="119" viewBox="0 0 118 119" fill="none" xmlns="http://www.w3.org/2000/svg">
<path d="M75.7203 29.0168H67.5058V30.9949H70.5584L70.3642 31.97L61.1229 76.4215L52.1175 30.9949H56.6965V29.0168H38.1862V30.9949H42.3489L44.9298 44.0615L38.2139 76.4215L28.709 30.9949H32.8717V29.0168H15.4714V30.9949H18.7184L31.8449 92.9846H36.5627L45.9289 49.2436L55.073 92.9846H59.7214L68.0469 52.3918L68.1163 52.0296L70.3226 41.3033L72.3762 31.4267L72.4872 30.9113H81.8395H92.288C93.1141 30.9675 93.907 31.2597 94.5733 31.7533C95.2395 32.2469 95.7513 32.9214 96.0483 33.6974C97.9996 38.7938 99.3592 44.0992 100.1 49.5082H102.39V29.0168H75.7203Z" fill="black"/>
<path d="M91.4832 45.6635C91.2608 49.1805 90.4881 52.6404 89.1937 55.9162C88.9189 56.5891 88.4494 57.1639 87.8458 57.5662C87.2423 57.9685 86.5324 58.1798 85.808 58.1729H81.2289V34.4914H75.1236L71.7934 50.5948V90.9926H67.811V92.9707H86.9319V90.9926H81.2567V60.5271H85.8357C86.5751 60.5114 87.3006 60.7306 87.9086 61.1534C88.5166 61.5762 88.976 62.1809 89.2214 62.8813C90.3039 66.0477 91.0708 69.3141 91.5109 72.6325H93.6478V45.6635H91.4832Z" fill="black"/>
<path d="M113.962 118.352H3.92684C2.88537 118.352 1.88658 117.936 1.15015 117.197C0.413722 116.458 0 115.455 0 114.409V3.94227C0 3.42457 0.101554 2.91193 0.298897 2.43363C0.49624 1.95533 0.785508 1.52074 1.15015 1.15466C1.51479 0.788591 1.94767 0.498209 2.4241 0.300091C2.90053 0.101974 3.41116 0 3.92684 0H113.962C114.478 0 114.988 0.101974 115.465 0.300091C115.941 0.498209 116.374 0.788591 116.739 1.15466C117.103 1.52074 117.393 1.95533 117.59 2.43363C117.787 2.91193 117.889 3.42457 117.889 3.94227V114.409C117.889 114.927 117.787 115.44 117.59 115.918C117.393 116.396 117.103 116.831 116.739 117.197C116.374 117.563 115.941 117.853 115.465 118.052C114.988 118.25 114.478 118.352 113.962 118.352ZM3.92684 2.04775C3.42635 2.04775 2.94637 2.24737 2.59246 2.60266C2.23856 2.95795 2.03975 3.43981 2.03975 3.94227V114.409C2.03975 114.912 2.23856 115.394 2.59246 115.749C2.94637 116.104 3.42635 116.304 3.92684 116.304H113.962C114.463 116.304 114.943 116.104 115.297 115.749C115.65 115.394 115.849 114.912 115.849 114.409V3.94227C115.849 3.43981 115.65 2.95795 115.297 2.60266C114.943 2.24737 114.463 2.04775 113.962 2.04775H3.92684Z" fill="black"/>
</svg>
