<svg width="32" height="25" viewBox="0 0 32 25" fill="none" xmlns="http://www.w3.org/2000/svg">
<path d="M11.2542 10.944C12.4489 11.4987 13.3662 12.3307 14.0062 13.44C14.6889 14.5067 15.0302 15.7653 15.0302 17.216C15.0302 19.3493 14.3475 21.0773 12.9822 22.4C11.6169 23.7227 9.86754 24.384 7.73421 24.384C5.60087 24.384 3.85154 23.7227 2.48621 22.4C1.12087 21.0773 0.438205 19.3493 0.438205 17.216C0.438205 16.2347 0.566205 15.2533 0.822205 14.272C1.07821 13.2907 1.65421 11.84 2.55021 9.92L6.64621 0.511997H14.2622L11.2542 10.944ZM28.0222 10.944C29.2169 11.4987 30.1342 12.3307 30.7742 13.44C31.4569 14.5067 31.7982 15.7653 31.7982 17.216C31.7982 19.3493 31.1155 21.0773 29.7502 22.4C28.3849 23.7227 26.6355 24.384 24.5022 24.384C22.3689 24.384 20.6195 23.7227 19.2542 22.4C17.8889 21.0773 17.2062 19.3493 17.2062 17.216C17.2062 16.2347 17.3342 15.2533 17.5902 14.272C17.8462 13.2907 18.4222 11.84 19.3182 9.92L23.4142 0.511997H31.0302L28.0222 10.944Z" fill="#9D00A1"/>
</svg>
