<svg width="25" height="25" viewBox="0 0 25 25" fill="none" xmlns="http://www.w3.org/2000/svg">
<path d="M22.5769 6.76746C21.2643 6.76746 20.0532 6.33261 19.0807 5.59904C17.9652 4.7581 17.1638 3.52455 16.8808 2.10277C16.8108 1.75148 16.773 1.38896 16.7694 1.01746H13.0198V11.2632L13.0153 16.8753C13.0153 18.3757 12.0383 19.6479 10.6839 20.0953C10.2908 20.2252 9.86628 20.2867 9.42425 20.2624C8.86003 20.2314 8.3313 20.0612 7.87175 19.7863C6.8938 19.2014 6.23076 18.1403 6.21279 16.9265C6.18449 15.0295 7.71812 13.4828 9.61382 13.4828C9.98802 13.4828 10.3474 13.5439 10.6839 13.6549V10.8544V9.84775C10.329 9.79519 9.96781 9.76779 9.60259 9.76779C7.52765 9.76779 5.58703 10.6303 4.19984 12.1841C3.15136 13.3584 2.52246 14.8565 2.42543 16.4275C2.2983 18.4912 3.05343 20.4529 4.51789 21.9003C4.73306 22.1128 4.95902 22.31 5.19531 22.4919C6.45087 23.4582 7.98585 23.982 9.60259 23.982C9.96781 23.982 10.329 23.955 10.6839 23.9025C12.1941 23.6787 13.5876 22.9874 14.6873 21.9003C16.0385 20.5648 16.7852 18.7917 16.7932 16.9045L16.7739 8.5239C17.4186 9.02119 18.1234 9.43267 18.8799 9.75207C20.0564 10.2485 21.3038 10.5 22.5877 10.4996V7.77685V6.76656C22.5886 6.76746 22.5778 6.76746 22.5769 6.76746Z" fill="#F00044"/>
</svg>
